<mxfile host="app.diagrams.net" modified="2021-04-16T08:05:56.593Z" agent="5.0 (Windows NT 10.0; WOW64) AppleWebKit/537.36 (KHTML, like Gecko) Chrome/89.0.4389.114 Safari/537.36" etag="8ZbSppNZaK8C8__5Gbxt" version="14.6.1" type="github">
  <diagram id="prtHgNgQTEPvFCAcTncT" name="Page-1">
    <mxGraphModel dx="782" dy="475" grid="1" gridSize="10" guides="1" tooltips="1" connect="1" arrows="1" fold="1" page="1" pageScale="1" pageWidth="827" pageHeight="1169" math="0" shadow="0">
      <root>
        <mxCell id="0" />
        <mxCell id="1" parent="0" />
        <mxCell id="U5vWFc3CAkQ7vRzJTkAJ-3" value="&lt;font style=&quot;font-size: 20px&quot;&gt;电源模块&lt;/font&gt;" style="rounded=0;whiteSpace=wrap;html=1;" vertex="1" parent="1">
          <mxGeometry x="280" y="220" width="170" height="60" as="geometry" />
        </mxCell>
        <mxCell id="U5vWFc3CAkQ7vRzJTkAJ-4" value="&lt;font style=&quot;font-size: 20px&quot;&gt;MCU主控模块&lt;/font&gt;" style="rounded=0;whiteSpace=wrap;html=1;" vertex="1" parent="1">
          <mxGeometry x="290" y="370" width="150" height="90" as="geometry" />
        </mxCell>
        <mxCell id="U5vWFc3CAkQ7vRzJTkAJ-5" value="&lt;font style=&quot;font-size: 20px&quot;&gt;GPS定位模块&lt;/font&gt;" style="rounded=0;whiteSpace=wrap;html=1;" vertex="1" parent="1">
          <mxGeometry x="40" y="385" width="140" height="60" as="geometry" />
        </mxCell>
        <mxCell id="U5vWFc3CAkQ7vRzJTkAJ-6" value="&lt;font style=&quot;font-size: 20px&quot;&gt;4G通信模块&lt;/font&gt;" style="rounded=0;whiteSpace=wrap;html=1;" vertex="1" parent="1">
          <mxGeometry x="590" y="385" width="140" height="60" as="geometry" />
        </mxCell>
        <mxCell id="U5vWFc3CAkQ7vRzJTkAJ-7" value="" style="endArrow=none;html=1;exitX=0.5;exitY=0;exitDx=0;exitDy=0;" edge="1" parent="1" source="U5vWFc3CAkQ7vRzJTkAJ-4" target="U5vWFc3CAkQ7vRzJTkAJ-3">
          <mxGeometry width="50" height="50" relative="1" as="geometry">
            <mxPoint x="380" y="370" as="sourcePoint" />
            <mxPoint x="430" y="320" as="targetPoint" />
            <Array as="points" />
          </mxGeometry>
        </mxCell>
        <mxCell id="U5vWFc3CAkQ7vRzJTkAJ-8" value="" style="endArrow=none;html=1;entryX=0;entryY=0.5;entryDx=0;entryDy=0;exitX=1;exitY=0.5;exitDx=0;exitDy=0;" edge="1" parent="1" source="U5vWFc3CAkQ7vRzJTkAJ-5" target="U5vWFc3CAkQ7vRzJTkAJ-4">
          <mxGeometry width="50" height="50" relative="1" as="geometry">
            <mxPoint x="180" y="410" as="sourcePoint" />
            <mxPoint x="230" y="360" as="targetPoint" />
          </mxGeometry>
        </mxCell>
        <mxCell id="U5vWFc3CAkQ7vRzJTkAJ-9" value="" style="endArrow=none;html=1;entryX=0;entryY=0.5;entryDx=0;entryDy=0;exitX=1;exitY=0.5;exitDx=0;exitDy=0;" edge="1" parent="1" source="U5vWFc3CAkQ7vRzJTkAJ-4" target="U5vWFc3CAkQ7vRzJTkAJ-6">
          <mxGeometry width="50" height="50" relative="1" as="geometry">
            <mxPoint x="440" y="420" as="sourcePoint" />
            <mxPoint x="490" y="370" as="targetPoint" />
          </mxGeometry>
        </mxCell>
      </root>
    </mxGraphModel>
  </diagram>
</mxfile>
